<svg width="743" height="801" viewBox="0 0 743 801" fill="none" xmlns="http://www.w3.org/2000/svg">
<path fill-rule="evenodd" clip-rule="evenodd" d="M0 281.49L314.742 149.628L535.203 667.254L219.991 800.986L0 281.49Z" fill="#2A2941"/>
<path fill-rule="evenodd" clip-rule="evenodd" d="M40.8074 204.338L355.551 72.4758L576.013 591.507L260.331 725.238L40.8074 204.338Z" fill="white"/>
<path fill-rule="evenodd" clip-rule="evenodd" d="M363.525 52.8387L20.6374 196.392L252.356 743.944L595.713 598.521L363.525 52.8387ZM60.508 212.757L347.107 92.584L555.843 582.624L267.835 704.199L60.0387 212.757H60.508Z" fill="#2A2941"/>
<path fill-rule="evenodd" clip-rule="evenodd" d="M267.835 236.601C255.17 239.407 243.444 244.083 232.186 250.629L236.877 275.411C227.496 282.426 219.521 290.842 213.424 300.661L188.563 297.389C182.936 308.611 179.181 321.237 177.306 333.861L199.351 345.084C198.884 356.774 200.759 367.995 204.981 379.217L187.156 396.986C192.785 408.676 199.821 418.964 209.203 428.315L232.186 418.495C241.099 425.977 251.418 431.588 262.208 435.329L265.491 460.112C278.156 463.386 290.819 463.853 303.484 462.916L310.053 438.603C321.31 436.264 332.098 432.056 341.949 425.977L363.994 439.071C373.846 431.121 382.756 421.769 389.794 411.015L374.313 390.908C379.943 380.621 383.226 369.398 384.164 358.176L408.087 349.759C408.556 337.135 406.209 324.509 401.988 312.352H376.659C371.968 301.598 365.402 292.246 356.959 283.829L365.402 260.448C355.551 252.5 344.294 245.953 332.098 241.744L315.68 260.916C304.423 258.111 292.696 257.176 280.97 258.579L267.835 236.601ZM267.835 287.57C284.253 281.022 302.078 281.491 318.494 288.037C334.442 295.05 347.577 307.676 354.143 323.574C357.428 331.524 358.834 339.939 358.834 348.824C358.834 357.241 356.959 366.126 353.206 373.606C349.923 381.556 344.763 388.569 338.664 394.649C332.567 400.728 325.062 405.404 317.088 408.676C300.671 415.223 282.845 414.756 266.429 408.208C250.481 401.195 237.816 388.569 231.248 372.204C224.682 355.839 225.151 338.069 231.717 321.704C238.753 305.806 251.418 293.181 267.835 286.635V287.57Z" fill="#FEC34E"/>
<path fill-rule="evenodd" clip-rule="evenodd" d="M277.217 230.522L272.996 223.977L265.491 225.379C251.887 228.651 238.753 233.796 226.559 240.809L219.991 244.551L225.151 269.8C219.052 275.411 213.424 281.49 208.733 288.037L182.466 285.231L179.181 291.777C173.084 304.402 168.863 317.963 166.987 331.522V339.004L190.441 351.161C190.91 359.111 192.316 367.528 194.193 375.476L175.429 394.18L178.714 401.195C184.811 413.819 192.785 425.51 202.636 435.328L207.795 440.94L231.717 430.184C238.285 435.33 245.79 439.069 253.764 442.343L257.047 468.06L264.552 469.931C278.156 473.203 292.227 474.138 306.298 472.736H313.805L320.371 447.486C328.345 445.147 336.319 442.343 343.355 438.134L365.402 451.695L371.499 447.019C382.287 438.134 391.669 427.847 398.705 416.158L402.926 409.61L386.978 387.634C390.261 380.152 392.608 372.204 394.014 364.254L418.875 355.37V347.422C419.344 333.393 416.999 319.833 412.308 306.272L409.962 298.792H383.695C379.942 291.309 375.252 284.763 369.624 278.685L378.065 253.903L371.968 249.227C360.711 240.342 348.515 233.796 335.381 228.651L328.345 225.846L311.458 245.485C303.484 244.083 295.041 243.146 286.598 243.616L276.748 228.184L277.217 230.522ZM267.835 236.601C255.17 239.407 243.444 244.083 232.186 250.629L236.877 275.411C227.495 282.424 219.521 290.842 213.424 300.661L188.563 297.857C182.936 309.078 179.181 321.235 177.306 333.861L199.351 345.55C198.884 357.241 200.759 368.463 204.981 379.685L187.156 397.454C192.785 409.143 199.821 419.43 209.203 428.782L232.186 418.962C241.099 426.445 251.418 432.056 262.208 435.797L265.491 460.579C278.156 463.851 290.819 464.319 303.484 463.384L310.052 439.069C321.31 436.732 332.567 432.523 341.949 426.445L363.994 439.536C373.844 431.588 382.756 422.236 389.792 411.482L374.313 391.376C379.943 381.087 383.226 369.865 384.164 358.643L408.087 350.226C408.556 337.602 406.209 324.976 401.988 312.82H376.659C371.968 302.063 365.402 292.711 356.959 284.763L365.402 260.916C355.082 252.966 343.824 246.888 332.098 242.212L315.68 261.383C304.423 258.579 292.696 257.642 280.97 259.046L267.835 236.601ZM267.835 287.568C284.253 281.022 302.078 281.49 318.494 288.037C334.442 295.05 347.577 307.676 354.143 323.574C357.428 331.522 358.834 339.939 358.834 348.824C358.834 357.241 356.959 366.124 353.206 373.606C349.923 381.556 344.763 388.569 338.664 394.647C332.567 400.726 325.062 405.402 317.088 408.676C309.114 411.949 300.67 413.819 291.758 413.352C283.314 413.352 274.404 411.482 266.429 408.208C258.455 404.934 251.418 399.791 245.321 393.713C239.222 387.634 234.533 380.152 231.248 372.204C227.965 364.254 226.09 355.37 226.09 346.954C226.09 338.069 227.965 329.652 231.248 321.702C234.533 313.754 239.691 306.272 245.79 300.661C251.887 294.583 259.392 289.907 267.366 286.633V287.568H267.835ZM272.057 298.324C285.661 292.711 300.671 293.181 313.805 298.792C327.407 304.402 337.727 315.157 343.355 328.717C346.169 335.263 347.577 342.278 347.107 349.759C347.107 356.774 345.701 363.787 342.886 370.332C340.072 376.88 335.85 382.958 330.69 387.634C325.531 392.778 319.433 396.519 312.866 398.856C299.263 404 284.253 404 271.119 398.389C257.986 392.778 247.196 382.023 241.568 368.463C238.753 361.917 237.816 354.902 237.816 347.422C237.816 340.407 239.222 333.393 242.507 326.846C245.321 320.3 249.543 314.222 254.701 309.546C259.392 304.87 265.491 300.661 272.057 298.324Z" fill="#2A2941"/>
<path fill-rule="evenodd" clip-rule="evenodd" d="M196.068 197.325L242.974 178.153L235.939 160.851L189.033 180.023L196.068 197.325Z" fill="#2A2941"/>
<path fill-rule="evenodd" clip-rule="evenodd" d="M557.249 454.032L622.919 426.445L689.995 461.982L646.372 556.903L542.239 526.042L557.249 453.097V454.032Z" fill="#2A2941"/>
<path fill-rule="evenodd" clip-rule="evenodd" d="M476.101 271.674L541.77 243.618L608.846 279.622L565.223 374.076L460.153 344.617L475.163 271.674H476.101Z" fill="#2A2941"/>
<path fill-rule="evenodd" clip-rule="evenodd" d="M398.705 85.5691L464.375 57.5128L531.451 93.0515L487.828 187.973L382.756 158.047L397.299 85.1016H398.705V85.5691Z" fill="#2A2941"/>
<path fill-rule="evenodd" clip-rule="evenodd" d="M590.084 413.353L655.754 385.299L722.83 420.836L679.207 515.757L574.135 485.831L588.676 412.886H590.084V413.353Z" fill="#A694FE"/>
<path fill-rule="evenodd" clip-rule="evenodd" d="M657.162 368.465L576.951 402.132L557.72 497.053L688.589 533.992L743 414.288L657.162 368.465ZM603.687 424.108L655.754 402.132L703.599 427.849L671.702 497.52L592.899 475.544L603.687 424.108Z" fill="#2A2941"/>
<path fill-rule="evenodd" clip-rule="evenodd" d="M507.998 230.526L573.666 202.937L640.742 238.474L597.119 332.93L492.05 303.471L506.59 230.526H507.998Z" fill="#FEC34E"/>
<path fill-rule="evenodd" clip-rule="evenodd" d="M576.013 186.103L495.802 219.77L476.571 314.224L607.44 351.632L662.32 231.927L576.013 186.103ZM522.538 241.279L574.605 219.303L622.45 245.02L590.553 314.691L512.22 293.182L522.538 241.279Z" fill="#2A2941"/>
<path fill-rule="evenodd" clip-rule="evenodd" d="M432.478 44.4195L498.147 16.3633L565.223 52.3675L521.6 147.291L416.999 117.365L431.54 44.4195H432.478Z" fill="#4C5EFD"/>
<path fill-rule="evenodd" clip-rule="evenodd" d="M499.554 0L419.344 33.6652L400.112 128.121L530.982 165.527L585.393 45.8237L499.554 0ZM446.08 55.6432L498.147 33.6652L545.991 58.917L514.095 128.588L435.292 106.61L446.08 55.6432Z" fill="#2A2941"/>
<path d="M352.737 606.468L343.824 597.116L307.706 612.078V625.172C308.175 628.913 308.175 632.185 307.706 635.926C307.237 636.861 306.769 637.796 305.831 638.732C304.892 639.667 303.954 640.135 303.017 640.602C300.671 641.537 298.326 641.537 295.98 640.602C295.043 640.135 293.635 639.667 293.166 638.732C292.227 637.796 291.758 636.861 291.289 635.926C290.821 634.524 290.821 633.12 291.289 632.185C291.289 630.315 291.289 627.976 291.289 626.107V559.707V552.227C290.821 549.888 290.821 547.551 291.289 545.681C291.758 543.809 292.696 541.94 294.104 540.068C295.51 538.199 297.387 536.796 299.732 536.329C302.078 535.394 304.423 534.925 306.769 535.392C308.645 535.392 310.522 536.329 312.397 537.264C314.274 538.199 315.68 539.601 317.088 541.005L322.718 546.616L369.624 593.842C372.438 596.181 374.782 598.985 376.19 602.259C377.129 604.598 376.659 606.935 375.721 609.274C374.782 611.611 372.907 613.013 370.562 613.948C369.155 614.417 367.747 614.417 366.808 613.948C365.402 613.948 364.464 613.481 363.525 613.013C362.119 612.079 361.18 611.144 359.773 609.741L355.551 606L352.737 606.468ZM306.769 596.648L333.506 585.894L304.892 555.031L306.769 596.648Z" fill="#4C5EFD"/>
<path d="M409.493 554.568L393.077 561.113L403.396 586.363C404.334 589.169 404.334 592.443 403.396 595.715C402.457 598.054 400.112 599.924 397.766 600.859C395.421 601.795 392.608 601.795 390.261 600.859C387.447 599.456 385.57 596.65 384.164 593.845L356.959 526.511C356.02 525.109 355.551 523.239 355.551 521.835C355.551 519.966 355.551 518.563 356.489 517.159C356.959 515.757 358.365 514.355 359.773 513.42C361.18 512.483 362.586 511.548 364.464 511.548L387.447 502.196C392.608 499.859 398.235 498.457 403.865 497.52C407.617 497.053 411.37 497.053 415.122 498.457C418.875 499.392 422.158 501.729 424.504 504.535C427.318 507.34 429.663 511.081 431.07 514.822C432.948 518.563 433.884 522.77 433.884 526.511C433.884 530.72 432.948 534.929 431.07 538.202C426.379 545.683 418.875 551.761 409.493 554.568ZM387.917 516.224L375.721 521.368L386.978 548.489L399.174 543.346C402.926 541.942 406.209 540.072 409.493 537.733C411.839 535.863 413.247 533.526 414.184 530.72C415.122 527.914 415.122 524.642 414.184 521.835C413.714 519.966 412.778 518.563 411.37 517.159C409.962 515.757 408.556 514.822 406.679 513.887C400.582 512.483 394.483 513.42 388.855 516.224H387.917Z" fill="#4C5EFD"/>
<path d="M469.066 559.709L440.452 490.505C439.514 487.699 439.514 484.427 440.452 481.153C441.391 478.816 443.266 476.945 446.082 476.01C448.426 475.075 451.24 475.075 453.587 476.01C456.401 477.412 458.745 479.751 459.684 483.023L488.297 552.227C489.236 555.033 489.236 558.774 488.297 561.579C487.359 563.918 485.014 565.787 482.668 566.722C480.323 567.659 477.509 567.659 475.163 566.722C472.349 565.32 470.004 562.515 469.066 559.709Z" fill="#4C5EFD"/>
</svg>
