<svg width="666" height="500" viewBox="0 0 666 500" fill="none" xmlns="http://www.w3.org/2000/svg">
<path d="M666 68.2993V454.542C666 479.645 645.687 499.972 620.601 499.972H514.624V242.496L333 378.843L151.376 242.496V500H45.399C39.4348 500 33.529 498.824 28.0192 496.539C22.5093 494.254 17.5033 490.905 13.2873 486.684C9.0712 482.462 5.72772 477.451 3.44783 471.936C1.16795 466.421 -0.00363713 460.51 8.48183e-06 454.542V68.2993C8.48183e-06 12.1221 64.0748 -19.9513 108.974 13.7605L151.376 45.6118L333 181.903L514.624 45.5563L557.026 13.7605C601.898 -19.9236 666 12.1221 666 68.2993Z" fill="white"/>
</svg>
