<svg width="500" height="500" viewBox="0 0 500 500" fill="none" xmlns="http://www.w3.org/2000/svg">
<g clip-path="url(#clip0_30_24)">
<path d="M490.571 227.726L272.266 9.42937C259.702 -3.14312 239.311 -3.14312 226.731 9.42937L181.399 54.7622L238.905 112.269C252.268 107.753 267.592 110.783 278.245 121.435C288.948 132.156 291.956 147.612 287.331 161.018L342.751 216.441C356.159 211.822 371.63 214.81 382.339 225.537C397.305 240.498 397.305 264.747 382.339 279.718C367.368 294.691 343.12 294.691 328.141 279.718C316.883 268.448 314.102 251.914 319.801 238.045L268.118 186.36L268.112 322.373C271.858 324.225 275.28 326.672 278.245 329.619C293.211 344.58 293.211 368.831 278.245 383.813C263.274 398.778 239.014 398.778 224.065 383.813C209.098 368.831 209.098 344.582 224.065 329.621C227.652 326.032 231.914 323.19 236.606 321.259V183.979C231.907 182.061 227.642 179.218 224.065 175.618C212.725 164.294 209.998 147.655 215.809 133.731L159.121 77.0361L9.43361 226.717C-3.14454 239.301 -3.14454 259.694 9.43361 272.268L227.743 490.569C240.311 503.144 260.698 503.144 273.282 490.569L490.569 273.282C503.144 260.704 503.145 240.299 490.571 227.726Z" fill="#DE4C36"/>
</g>
<defs>
<clipPath id="clip0_30_24">
<rect width="500" height="500" fill="white"/>
</clipPath>
</defs>
</svg>
