<svg width="513" height="500" viewBox="0 0 513 500" fill="none" xmlns="http://www.w3.org/2000/svg">
<path fill-rule="evenodd" clip-rule="evenodd" d="M256.5 0C114.784 0 0 114.705 0 256.323C0 369.747 73.4231 465.547 175.382 499.51C188.207 501.753 193.016 494.063 193.016 487.335C193.016 481.247 192.696 461.062 192.696 439.595C128.25 451.45 111.577 423.895 106.447 409.477C103.562 402.107 91.0575 379.359 80.1562 373.271C71.1787 368.465 58.3537 356.61 79.8356 356.29C100.035 355.969 114.463 374.873 119.273 382.563C142.358 421.332 179.229 410.438 193.978 403.709C196.223 387.048 202.956 375.834 210.33 369.426C153.259 363.018 93.6225 340.91 93.6225 242.866C93.6225 214.991 103.562 191.922 119.914 173.98C117.349 167.571 108.371 141.298 122.479 106.054C122.479 106.054 143.961 99.3253 193.016 132.327C213.536 126.56 235.339 123.676 257.141 123.676C278.944 123.676 300.746 126.56 321.266 132.327C370.322 99.0049 391.804 106.054 391.804 106.054C405.911 141.298 396.934 167.571 394.369 173.98C410.721 191.922 420.66 214.671 420.66 242.866C420.66 341.231 360.703 363.018 303.632 369.426C312.93 377.436 320.946 392.816 320.946 416.846C320.946 451.129 320.625 478.684 320.625 487.335C320.625 494.063 325.434 502.074 338.259 499.51C439.577 465.547 513 369.426 513 256.323C513 114.705 398.216 0 256.5 0Z" fill="white"/>
</svg>
